<mxfile host="app.diagrams.net" modified="2024-02-12T13:17:50.098Z" agent="Mozilla/5.0 (Windows NT 10.0; Win64; x64) AppleWebKit/537.36 (KHTML, like Gecko) Chrome/120.0.0.0 Safari/537.36 OPR/106.0.0.0" version="23.1.2" etag="KLpsJNCeP_5Tzn-cLiyY" type="github">
  <diagram name="Page-1" id="e2jL8_4CVrj-lqxHwGoR">
    <mxGraphModel>
      <root>
        <mxCell id="0" />
        <mxCell id="1" parent="0" />
      </root>
    </mxGraphModel>
  </diagram>
</mxfile>
